<?xml version="1.0" encoding="utf-8"?>
<!-- Generator: Adobe Illustrator 24.3.0, SVG Export Plug-In . SVG Version: 6.00 Build 0)  -->
<svg version="1.1" id="Layer_1" xmlns="http://www.w3.org/2000/svg" xmlns:xlink="http://www.w3.org/1999/xlink" x="0px" y="0px"
	 viewBox="0 0 360 360" style="enable-background:new 0 0 360 360;" xml:space="preserve">
<style type="text/css">
	.st0{clip-path:url(#SVGID_2_);}
	.st1{fill:#EAE3D5;}
	.st2{fill:#809166;}
	.st3{fill:#E5C27F;}
	.st4{fill:#FFFFFF;}
	.st5{fill:#596848;}
	.st6{fill:#14295E;}
</style>
<g>
	<defs>
		<rect id="SVGID_1_" width="360" height="360"/>
	</defs>
	<clipPath id="SVGID_2_">
		<use xlink:href="#SVGID_1_"  style="overflow:visible;"/>
	</clipPath>
	<g class="st0">
		<rect class="st1" width="360" height="360"/>
	</g>
	<g class="st0">
		<path class="st2" d="M163.71,266.1c25.86,25.61,58.86,54.55,63.7,92.88c4.44,35.13-17.97,63.77-45.04,83.24
			c-19.34,13.9-43.53,28.8-66.2,36.39C72.89,493.1,0.89,516.63-37.79,478.73c-21.78-21.34-25.31-54.1-24.26-82.69
			c2.16-58.7,10.34-142.16,70.45-171.43c28.08-13.67,61.75-17.64,90.93-5.38C124.2,229.67,144.66,247.25,163.71,266.1z"/>
	</g>
	<g class="st0">
		<path class="st3" d="M300.72,288.15c17.48,20.17,53.92,20.77,70.64-0.15c9.11-11.42-1.65-31.76-3.14-44.01
			c-1.81-14.83,9.27-28.56,5.21-43.84c-8.4-31.64-55.17-27.61-80.49-16.72c-27.58,11.87-30.2,38.58-19.58,63.4
			C280.25,262.95,289.36,275.04,300.72,288.15z"/>
	</g>
	<g class="st0">
		<path class="st4" d="M346.54,313.98c-14.27,0-27.74-5.75-36.2-15.51l0,0c-11.52-13.29-20.59-25.42-27.44-41.45
			c-9.69-22.67-9.56-51.4,19.85-64.06c18.6-8,46.7-11.6,64.41-2.99c8.71,4.24,14.35,10.98,16.75,20.04
			c2.23,8.4-0.06,16.4-2.28,24.13c-1.84,6.43-3.74,13.07-2.93,19.77c0.42,3.47,1.61,7.64,2.86,12.05
			c3.2,11.24,6.83,23.99,0.17,32.34c-7.73,9.67-20.17,15.39-34.14,15.67C347.25,313.98,346.9,313.98,346.54,313.98z M311.1,297.82
			c8.48,9.78,22.13,15.44,36.49,15.15c13.67-0.28,25.84-5.85,33.38-15.29c6.33-7.95,2.78-20.43-0.35-31.44
			c-1.27-4.45-2.46-8.65-2.89-12.2c-0.84-6.9,1.09-13.65,2.96-20.17c2.18-7.6,4.43-15.47,2.27-23.6
			c-2.33-8.77-7.79-15.29-16.22-19.39c-17.45-8.48-45.19-4.91-63.58,3.01c-28.74,12.37-28.82,40.52-19.32,62.75
			C290.62,272.54,299.64,284.6,311.1,297.82z"/>
	</g>
	<g class="st0">
		<path class="st5" d="M227.54,111.58c2.09,24.58-2.7,58.47-31.5,61.08c-27.51,2.5-53.35-16.52-69.78-36.55
			c-8.32-10.15-17.07-22.12-20.97-34.81c-12.93-42.07,30.69-55.65,63.74-51.65C201.13,53.55,224.84,79.94,227.54,111.58z"/>
	</g>
	<g class="st0">
		<path class="st4" d="M181.31,163.38c-22.11,0-46.23-13.52-65.43-36.95c-7.68-9.36-17.01-21.8-21.06-34.98
			c-4.38-14.26-2.68-26.17,5.05-35.42c12.62-15.08,38.83-19.34,59.23-16.87c15.48,1.88,29.89,9.23,40.58,20.71
			c10.51,11.29,17.03,26.09,18.36,41.66l0,0c0.73,8.56,1.15,25-4.2,39c-5.28,13.82-14.62,21.43-27.75,22.63
			C184.5,163.3,182.91,163.38,181.31,163.38z M147.97,39.51c-17.76,0-37.12,4.97-47.33,17.17c-7.5,8.97-9.14,20.57-4.86,34.48
			c4,13.01,13.26,25.34,20.88,34.64c7.64,9.32,35.19,39.47,69.35,36.37c12.72-1.16,21.78-8.55,26.91-21.99
			c5.28-13.81,4.86-30.08,4.14-38.56l0,0c-1.31-15.36-7.74-29.94-18.1-41.07c-10.52-11.3-24.72-18.55-39.97-20.4
			C155.45,39.73,151.74,39.51,147.97,39.51z"/>
	</g>
	<g class="st0">
		<path class="st4" d="M30.49,489.75c-25.22,0-44.5-6.82-58.62-20.66c-17.84-17.48-25.83-44.65-24.41-83.06
			c2.4-65.15,12.61-143.57,70.73-171.86c30.66-14.93,63.96-16.9,91.34-5.4c26.15,10.98,47.3,29.91,64.53,46.98
			c2.32,2.3,4.7,4.62,7.11,6.98c24.52,23.97,52.31,51.14,56.74,86.2c2.07,16.43-1.55,32.51-10.77,47.81
			c-7.84,13.01-19.44,25.08-34.47,35.89c-16.91,12.16-42.15,28.36-66.33,36.45c-19.87,6.65-49.89,16.7-78.81,19.73
			C41.56,489.44,35.89,489.75,30.49,489.75z M71.56,202.36c-17.44,0-35.61,4.26-52.94,12.7c-57.64,28.07-67.78,106.13-70.17,171
			c-1.41,38.11,6.48,65.04,24.11,82.31c16.93,16.59,41.42,22.94,74.85,19.44c28.81-3.02,58.77-13.05,78.6-19.69
			c24.06-8.05,49.21-24.2,66.06-36.32c44.1-31.71,47.02-65.47,44.83-82.77c-4.38-34.72-32.04-61.75-56.44-85.61
			c-2.41-2.36-4.79-4.68-7.11-6.98l0,0c-17.17-17-38.22-35.85-64.22-46.77C97.47,204.79,84.72,202.36,71.56,202.36z"/>
	</g>
	<g class="st0">
		<g>
			<g>
				<path class="st6" d="M-29.24,244.36c-2.82-0.51-4.49-2.85-4.8-5.58c-0.32-2.85,1.35-5.38,3.54-7.03
					c1.38-1.04,3.06-1.83,4.79-2.03c1.59-0.18,3.32,0.53,4.58,1.47c1.28,0.95,3.13,1.12,4.34,2.2c0.21,0.19,0.42,0.4,0.62,0.64
					c1.56,1.91,1.82,4.75,0.74,6.93C-17.66,245.48-25.15,245.1-29.24,244.36z"/>
			</g>
		</g>
		<g>
			<g>
				<path class="st6" d="M-4.85,230.46c-1.86-1.41-3.27-3.31-5.19-4.66c-1.03-0.72-2.23-1.14-3.27-1.86
					c-1.02-0.71-1.64-1.86-1.98-3.02c-0.83-2.84,1.87-7.75,5.29-6.26c0.99,0.43,1.91,0.92,2.97,1.12c0.91,0.17,1.82-0.14,2.67-0.42
					c1.5-0.49,2.83-0.34,4.14,0.55c2.07,1.4,3.09,4.04,3.69,6.35c0.68,2.67,0.63,5.58-1.17,7.8C0.36,232.46-2.6,232.16-4.85,230.46z
					"/>
			</g>
		</g>
		<g>
			<g>
				<path class="st6" d="M0.31,190.25c2.74,2.23,7.53,6.63,5.65,10.62c-0.45,0.96-1.78,1.61-2.65,2.13
					c-0.91,0.55-1.85,1.03-2.79,1.53c-3.17,1.71-6.74,0.48-9.4-1.6c-1.39-1.09-2.55-2.46-3.65-3.83c-1.13-1.41-2.2-2.87-2.83-4.58
					c-0.51-1.4-0.39-2.91,0.34-4.21c1.25-2.21,3.23-2.68,5.37-3.67c1.48-0.68,3.22-0.27,4.66,0.29
					C-3.04,187.68-1.3,188.94,0.31,190.25z"/>
			</g>
		</g>
		<g>
			<g>
				<path class="st6" d="M29.81,178.67c1.69,3.07,3.06,6.34,4.58,9.49c0.83,1.73,1.71,4.03,1.08,5.94c-0.18,0.54-0.6,0.87-1.13,1.05
					c-1.03,0.35-1.66-0.38-2.27-1.04c-0.68-0.75-1.4-1.08-2.42-1.13c-1.18-0.06-2.32,0.18-3.49,0.3c-1.61,0.16-2.95-0.37-4.18-1.39
					c-1.55-1.28-2.42-3.11-2.9-5.03c-0.48-1.93-0.89-4.22-0.63-6.2c0.27-2.06,1.27-3.94,3.24-5.09c1.46-0.85,3.28-0.96,4.84-0.37
					C28.07,175.79,29.05,177.29,29.81,178.67z"/>
			</g>
		</g>
		<g>
			<g>
				<path class="st6" d="M34.18,212.82c0.98,1.41,1.84,2.9,2.15,4.61c0.31,1.71-0.26,3.47-0.95,5.01c-1.43,3.18-4.05,6.12-7.71,6.43
					c-3.77,0.33-5.53-3.11-7.19-5.87c-1.57-2.62-2.94-5.47-3.09-8.57c-0.09-1.92,0.28-3.9,1.15-5.62c1.52-2.99,4.66-3.86,8.43-2.56
					C30.05,207.32,32.38,210.23,34.18,212.82z"/>
			</g>
		</g>
		<g>
			<g>
				<path class="st6" d="M16.97,241.78c1.71,1.38,3.36,2.74,5.25,3.88c4.27,2.59,3.14,7.81,1,11.51c-1.02,1.77-2.45,3.43-4.25,4.45
					c-2.62,1.49-6.3,0.92-9.01,0.01c-2.96-0.98-4.88-2.97-5.11-6.13c-0.09-1.3,0.23-2.6,0.03-3.89c-0.22-1.45-1.01-2.74-1.24-4.19
					c-0.35-2.12,0.03-4.8,0.9-6.76c0.75-1.69,2.77-3.22,4.69-2.88c1.22,0.21,2.54,1.01,3.66,1.53
					C14.33,240,15.73,240.78,16.97,241.78z"/>
			</g>
		</g>
		<g>
			<g>
				<path class="st6" d="M-10.29,278.98c-1.3,0.45-2.56,0.8-3.71,1.58c-1.47,1.01-2.61,2.21-4.44,2.54c-3.01,0.54-6.4-1.2-8.3-3.46
					c-2.04-2.43-2.41-6.08-1.88-9.09c0.21-1.21,0.59-2.47,1.48-3.35c0.81-0.8,2-1.17,3.07-1.46c1.97-0.52,4.03-0.63,6.05-0.88
					c3.27-0.4,5.95-3.18,9.17-0.91c2.77,1.95,3.98,5.57,3.7,8.84c-0.13,1.48-0.62,3.01-1.57,4.16
					C-7.6,278.05-9.02,278.54-10.29,278.98z"/>
			</g>
		</g>
		<g>
			<g>
				<path class="st6" d="M14.54,284.93c-0.07-1.04,0-2.09,0.05-3.13c0.05-1.07-0.19-2.06-0.35-3.11c-0.22-1.39,0.44-2.3,1.36-3.25
					c1.04-1.06,2-2.26,3.47-2.71c2.4-0.73,4.99,1.05,6.76,2.46c1.69,1.34,3.64,2.95,4.51,4.96c0.98,2.24,0.61,4.92-0.44,7.06
					c-0.61,1.25-1.68,2.32-2.94,2.9c-1.58,0.74-3.27,0.31-4.93,0.13c-1.89-0.2-4.28,0.14-5.74-1.11
					C15.09,288.11,14.65,286.46,14.54,284.93z"/>
			</g>
		</g>
		<g>
			<g>
				<path class="st6" d="M7.72,294.71c1.01,1.37,1.79,2.83,2.92,4.12c0.94,1.07,2.03,2,3.2,2.82c1.52,1.07,2.99,1.95,4.66,2.72
					c0.76,0.35,1.54,0.67,2.29,1.05c1.4,0.69,2.73,1.54,3.75,2.74c2.19,2.59,2.9,6.37,1.35,9.44c-1.53,3.03-5.11,4.49-8.33,4.63
					c-3.87,0.17-7.47-1.98-10.26-4.47c-2.93-2.61-5.44-5.71-5.59-9.76c-0.07-1.89,0.15-3.81,0.26-5.7c0.13-2.05,0.09-4.18,0.57-6.18
					c0.28-1.15,1-2.08,2.06-2.59C5.87,292.93,6.99,293.72,7.72,294.71z"/>
			</g>
		</g>
		<g>
			<g>
				<path class="st6" d="M41.93,234.77c1.61-1.32,3.58-2.38,5.65-2.75c2.8-0.51,5.26,0.87,6.97,3.03c1.95,2.46,3.81,7.08,2.67,10.22
					c-0.52,1.45-2.52,2.53-3.79,3.27c-5.23,3.03-12.02,2.87-16.36-1.61c-2.14-2.21-4.46-6.9-0.44-8.52
					C38.67,237.6,40.26,236.15,41.93,234.77z"/>
			</g>
		</g>
		<g>
			<g>
				<path class="st6" d="M77.15,205.1c0.53,0.87,0.89,1.89,0.73,2.92c-0.19,1.23-1.52,2.21-2.34,3.04
					c-2.35,2.38-5.02,4.44-8.31,5.29c-2.43,0.63-4.99,0.65-7.46,0.21c-1.24-0.22-2.46-0.56-3.63-1.02c-1.41-0.55-2.72-1-3.73-2.18
					c-1.09-1.28-1.81-2.83-2.86-4.14c-0.69-0.87-1.54-1.49-2.53-1.97c-1.65-0.8-3.54-1.97-3.29-4.08c0.23-1.98,2.76-3.16,4.33-3.89
					c1.6-0.74,3.3-1.25,5.01-1.65c3.6-0.84,7.48-1.16,11.16-0.73C69.25,197.48,74.49,200.75,77.15,205.1z"/>
			</g>
		</g>
		<g>
			<g>
				<path class="st6" d="M59.82,268.34c2.21,1.85,2.45,5.46,2.49,8.15c0.02,1.11-0.04,2.75-1.03,3.44c-0.8,0.56-1.91,0.76-2.85,0.94
					c-2.47,0.48-5.52,0.79-7.92-0.12c-2.53-0.96-4.12-3.15-5.13-5.56c-0.44-1.05-0.76-2.15-1.08-3.24c-0.36-1.22-1.1-2.78-0.92-4.05
					c0.27-1.93,2.35-1.71,3.75-1.67c1.55,0.04,3.11-0.07,4.66-0.1C54.58,266.07,57.62,266.49,59.82,268.34z"/>
			</g>
		</g>
		<g>
			<g>
				<path class="st6" d="M77.03,302.96c0.06,2.96-2.21,5.46-4.62,6.84c-2.72,1.56-5.94,1.64-8.94,1.01
					c-4.71-0.99-12.21-4.19-12.72-9.77c-0.27-2.98,2.6-4.11,5.07-4.42c3.19-0.4,6.11,0.88,9.26,0.87c2.76,0,5.12-1.97,7.91-0.89
					C75.49,297.57,76.98,300.39,77.03,302.96z"/>
			</g>
		</g>
		<g>
			<g>
				<path class="st6" d="M85.95,246.13c2.29,1.9,3.2,5.02,3.29,7.88c0.11,3.34-0.97,6.77-2.22,9.82c-0.65,1.6-1.7,3.17-3.15,4.17
					c-1.42,0.98-3.57,1.49-4.85-0.01c-1.15-1.34-1.4-3.58-1.43-5.26c-0.04-1.92-0.08-3.75-0.82-5.55c-0.44-1.05-1.13-1.96-1.82-2.84
					c-1.01-1.29-1.64-2.86-2.16-4.4c-0.55-1.65-0.51-3.5,0.51-4.95c0.87-1.25,2.51-1.64,3.93-1.73
					C80.25,243.05,83.65,244.21,85.95,246.13z"/>
			</g>
		</g>
	</g>
</g>
</svg>
